TITLE ""
FILE "TOEIC LR Kinnojyukugo_14.mp3" MP3
  TRACK 01 AUDIO
    TITLE "TOEIC LR Kinnojyukugo_14_01"
    INDEX 01 00:00:00
  TRACK 02 AUDIO
    TITLE "TOEIC LR Kinnojyukugo_14_02"
    INDEX 01 00:00:08
  TRACK 03 AUDIO
    TITLE "TOEIC LR Kinnojyukugo_14_03"
    INDEX 01 00:01:47
  TRACK 04 AUDIO
    TITLE "TOEIC LR Kinnojyukugo_14_04"
    INDEX 01 00:02:09
  TRACK 05 AUDIO
    TITLE "TOEIC LR Kinnojyukugo_14_05"
    INDEX 01 00:03:46
  TRACK 06 AUDIO
    TITLE "TOEIC LR Kinnojyukugo_14_06"
    INDEX 01 00:04:08
  TRACK 07 AUDIO
    TITLE "TOEIC LR Kinnojyukugo_14_07"
    INDEX 01 00:05:33
  TRACK 08 AUDIO
    TITLE "TOEIC LR Kinnojyukugo_14_08"
    INDEX 01 00:05:70
  TRACK 09 AUDIO
    TITLE "TOEIC LR Kinnojyukugo_14_09"
    INDEX 01 00:07:36
  TRACK 10 AUDIO
    TITLE "TOEIC LR Kinnojyukugo_14_10"
    INDEX 01 00:07:73
  TRACK 11 AUDIO
    TITLE "TOEIC LR Kinnojyukugo_14_11"
    INDEX 01 00:09:27
  TRACK 12 AUDIO
    TITLE "TOEIC LR Kinnojyukugo_14_12"
    INDEX 01 00:09:64
  TRACK 13 AUDIO
    TITLE "TOEIC LR Kinnojyukugo_14_13"
    INDEX 01 00:11:14
  TRACK 14 AUDIO
    TITLE "TOEIC LR Kinnojyukugo_14_14"
    INDEX 01 00:11:49
  TRACK 15 AUDIO
    TITLE "TOEIC LR Kinnojyukugo_14_15"
    INDEX 01 00:13:21
  TRACK 16 AUDIO
    TITLE "TOEIC LR Kinnojyukugo_14_16"
    INDEX 01 00:13:60
  TRACK 17 AUDIO
    TITLE "TOEIC LR Kinnojyukugo_14_17"
    INDEX 01 00:15:27
  TRACK 18 AUDIO
    TITLE "TOEIC LR Kinnojyukugo_14_18"
    INDEX 01 00:15:63
  TRACK 19 AUDIO
    TITLE "TOEIC LR Kinnojyukugo_14_19"
    INDEX 01 00:17:36
  TRACK 20 AUDIO
    TITLE "TOEIC LR Kinnojyukugo_14_20"
    INDEX 01 00:17:73
  TRACK 21 AUDIO
    TITLE "TOEIC LR Kinnojyukugo_14_21"
    INDEX 01 00:19:59
  TRACK 22 AUDIO
    TITLE "TOEIC LR Kinnojyukugo_14_22"
    INDEX 01 00:20:21
  TRACK 23 AUDIO
    TITLE "TOEIC LR Kinnojyukugo_14_23"
    INDEX 01 00:21:34
  TRACK 24 AUDIO
    TITLE "TOEIC LR Kinnojyukugo_14_24"
    INDEX 01 00:22:04
  TRACK 25 AUDIO
    TITLE "TOEIC LR Kinnojyukugo_14_25"
    INDEX 01 00:23:33
  TRACK 26 AUDIO
    TITLE "TOEIC LR Kinnojyukugo_14_26"
    INDEX 01 00:23:70
  TRACK 27 AUDIO
    TITLE "TOEIC LR Kinnojyukugo_14_27"
    INDEX 01 00:26:02
  TRACK 28 AUDIO
    TITLE "TOEIC LR Kinnojyukugo_14_28"
    INDEX 01 00:26:41
  TRACK 29 AUDIO
    TITLE "TOEIC LR Kinnojyukugo_14_29"
    INDEX 01 00:28:13
  TRACK 30 AUDIO
    TITLE "TOEIC LR Kinnojyukugo_14_30"
    INDEX 01 00:28:48
  TRACK 31 AUDIO
    TITLE "TOEIC LR Kinnojyukugo_14_31"
    INDEX 01 00:30:04
  TRACK 32 AUDIO
    TITLE "TOEIC LR Kinnojyukugo_14_32"
    INDEX 01 00:30:43
  TRACK 33 AUDIO
    TITLE "TOEIC LR Kinnojyukugo_14_33"
    INDEX 01 00:32:12
  TRACK 34 AUDIO
    TITLE "TOEIC LR Kinnojyukugo_14_34"
    INDEX 01 00:32:53
  TRACK 35 AUDIO
    TITLE "TOEIC LR Kinnojyukugo_14_35"
    INDEX 01 00:34:21
  TRACK 36 AUDIO
    TITLE "TOEIC LR Kinnojyukugo_14_36"
    INDEX 01 00:34:58
  TRACK 37 AUDIO
    TITLE "TOEIC LR Kinnojyukugo_14_37"
    INDEX 01 00:36:36
  TRACK 38 AUDIO
    TITLE "TOEIC LR Kinnojyukugo_14_38"
    INDEX 01 00:36:73
  TRACK 39 AUDIO
    TITLE "TOEIC LR Kinnojyukugo_14_39"
    INDEX 01 00:38:25
  TRACK 40 AUDIO
    TITLE "TOEIC LR Kinnojyukugo_14_40"
    INDEX 01 00:38:64
  TRACK 41 AUDIO
    TITLE "TOEIC LR Kinnojyukugo_14_41"
    INDEX 01 00:40:31
  TRACK 42 AUDIO
    TITLE "TOEIC LR Kinnojyukugo_14_42"
    INDEX 01 00:40:73
  TRACK 43 AUDIO
    TITLE "TOEIC LR Kinnojyukugo_14_43"
    INDEX 01 00:42:42
  TRACK 44 AUDIO
    TITLE "TOEIC LR Kinnojyukugo_14_44"
    INDEX 01 00:43:04
  TRACK 45 AUDIO
    TITLE "TOEIC LR Kinnojyukugo_14_45"
    INDEX 01 00:44:47
  TRACK 46 AUDIO
    TITLE "TOEIC LR Kinnojyukugo_14_46"
    INDEX 01 00:45:11
  TRACK 47 AUDIO
    TITLE "TOEIC LR Kinnojyukugo_14_47"
    INDEX 01 00:46:55
  TRACK 48 AUDIO
    TITLE "TOEIC LR Kinnojyukugo_14_48"
    INDEX 01 00:47:16
  TRACK 49 AUDIO
    TITLE "TOEIC LR Kinnojyukugo_14_49"
    INDEX 01 00:50:14
  TRACK 50 AUDIO
    TITLE "TOEIC LR Kinnojyukugo_14_50"
    INDEX 01 00:50:51
  TRACK 51 AUDIO
    TITLE "TOEIC LR Kinnojyukugo_14_51"
    INDEX 01 00:52:35
  TRACK 52 AUDIO
    TITLE "TOEIC LR Kinnojyukugo_14_52"
    INDEX 01 00:52:68
  TRACK 53 AUDIO
    TITLE "TOEIC LR Kinnojyukugo_14_53"
    INDEX 01 00:54:16
  TRACK 54 AUDIO
    TITLE "TOEIC LR Kinnojyukugo_14_54"
    INDEX 01 00:54:53
  TRACK 55 AUDIO
    TITLE "TOEIC LR Kinnojyukugo_14_55"
    INDEX 01 00:56:07
  TRACK 56 AUDIO
    TITLE "TOEIC LR Kinnojyukugo_14_56"
    INDEX 01 00:56:48
  TRACK 57 AUDIO
    TITLE "TOEIC LR Kinnojyukugo_14_57"
    INDEX 01 00:58:06
  TRACK 58 AUDIO
    TITLE "TOEIC LR Kinnojyukugo_14_58"
    INDEX 01 00:58:51
  TRACK 59 AUDIO
    TITLE "TOEIC LR Kinnojyukugo_14_59"
    INDEX 01 01:00:03
  TRACK 60 AUDIO
    TITLE "TOEIC LR Kinnojyukugo_14_60"
    INDEX 01 01:00:40
  TRACK 61 AUDIO
    TITLE "TOEIC LR Kinnojyukugo_14_61"
    INDEX 01 01:02:15
  TRACK 62 AUDIO
    TITLE "TOEIC LR Kinnojyukugo_14_62"
    INDEX 01 01:02:51
  TRACK 63 AUDIO
    TITLE "TOEIC LR Kinnojyukugo_14_63"
    INDEX 01 01:04:40
  TRACK 64 AUDIO
    TITLE "TOEIC LR Kinnojyukugo_14_64"
    INDEX 01 01:04:75
  TRACK 65 AUDIO
    TITLE "TOEIC LR Kinnojyukugo_14_65"
    INDEX 01 01:06:11
  TRACK 66 AUDIO
    TITLE "TOEIC LR Kinnojyukugo_14_66"
    INDEX 01 01:06:50
  TRACK 67 AUDIO
    TITLE "TOEIC LR Kinnojyukugo_14_67"
    INDEX 01 01:08:16
  TRACK 68 AUDIO
    TITLE "TOEIC LR Kinnojyukugo_14_68"
    INDEX 01 01:08:53
  TRACK 69 AUDIO
    TITLE "TOEIC LR Kinnojyukugo_14_69"
    INDEX 01 01:10:25
  TRACK 70 AUDIO
    TITLE "TOEIC LR Kinnojyukugo_14_70"
    INDEX 01 01:10:70
  TRACK 71 AUDIO
    TITLE "TOEIC LR Kinnojyukugo_14_71"
    INDEX 01 01:12:33
  TRACK 72 AUDIO
    TITLE "TOEIC LR Kinnojyukugo_14_72"
    INDEX 01 01:12:72
  TRACK 73 AUDIO
    TITLE "TOEIC LR Kinnojyukugo_14_73"
    INDEX 01 01:14:50
  TRACK 74 AUDIO
    TITLE "TOEIC LR Kinnojyukugo_14_74"
    INDEX 01 01:15:12
  TRACK 75 AUDIO
    TITLE "TOEIC LR Kinnojyukugo_14_75"
    INDEX 01 01:17:01
  TRACK 76 AUDIO
    TITLE "TOEIC LR Kinnojyukugo_14_76"
    INDEX 01 01:17:40
  TRACK 77 AUDIO
    TITLE "TOEIC LR Kinnojyukugo_14_77"
    INDEX 01 01:18:67
  TRACK 78 AUDIO
    TITLE "TOEIC LR Kinnojyukugo_14_78"
    INDEX 01 01:19:31
  TRACK 79 AUDIO
    TITLE "TOEIC LR Kinnojyukugo_14_79"
    INDEX 01 01:21:11
  TRACK 80 AUDIO
    TITLE "TOEIC LR Kinnojyukugo_14_80"
    INDEX 01 01:21:50
  TRACK 81 AUDIO
    TITLE "TOEIC LR Kinnojyukugo_14_81"
    INDEX 01 01:23:33
  TRACK 82 AUDIO
    TITLE "TOEIC LR Kinnojyukugo_14_82"
    INDEX 01 01:23:72
  TRACK 83 AUDIO
    TITLE "TOEIC LR Kinnojyukugo_14_83"
    INDEX 01 01:25:09
  TRACK 84 AUDIO
    TITLE "TOEIC LR Kinnojyukugo_14_84"
    INDEX 01 01:25:59
  TRACK 85 AUDIO
    TITLE "TOEIC LR Kinnojyukugo_14_85"
    INDEX 01 01:27:13
  TRACK 86 AUDIO
    TITLE "TOEIC LR Kinnojyukugo_14_86"
    INDEX 01 01:27:51
  TRACK 87 AUDIO
    TITLE "TOEIC LR Kinnojyukugo_14_87"
    INDEX 01 01:29:02
  TRACK 88 AUDIO
    TITLE "TOEIC LR Kinnojyukugo_14_88"
    INDEX 01 01:29:49
  TRACK 89 AUDIO
    TITLE "TOEIC LR Kinnojyukugo_14_89"
    INDEX 01 01:31:27
